%TF.GenerationSoftware,KiCad,Pcbnew,8.0.5*%
%TF.CreationDate,2024-11-19T23:46:25+01:00*%
%TF.ProjectId,esp32-with-gsm,65737033-322d-4776-9974-682d67736d2e,rev?*%
%TF.SameCoordinates,Original*%
%TF.FileFunction,Legend,Bot*%
%TF.FilePolarity,Positive*%
%FSLAX46Y46*%
G04 Gerber Fmt 4.6, Leading zero omitted, Abs format (unit mm)*
G04 Created by KiCad (PCBNEW 8.0.5) date 2024-11-19 23:46:25*
%MOMM*%
%LPD*%
G01*
G04 APERTURE LIST*
%ADD10C,0.150000*%
%ADD11C,0.120000*%
G04 APERTURE END LIST*
D10*
X195104819Y-60333333D02*
X194628628Y-60000000D01*
X195104819Y-59761905D02*
X194104819Y-59761905D01*
X194104819Y-59761905D02*
X194104819Y-60142857D01*
X194104819Y-60142857D02*
X194152438Y-60238095D01*
X194152438Y-60238095D02*
X194200057Y-60285714D01*
X194200057Y-60285714D02*
X194295295Y-60333333D01*
X194295295Y-60333333D02*
X194438152Y-60333333D01*
X194438152Y-60333333D02*
X194533390Y-60285714D01*
X194533390Y-60285714D02*
X194581009Y-60238095D01*
X194581009Y-60238095D02*
X194628628Y-60142857D01*
X194628628Y-60142857D02*
X194628628Y-59761905D01*
X195104819Y-61285714D02*
X195104819Y-60714286D01*
X195104819Y-61000000D02*
X194104819Y-61000000D01*
X194104819Y-61000000D02*
X194247676Y-60904762D01*
X194247676Y-60904762D02*
X194342914Y-60809524D01*
X194342914Y-60809524D02*
X194390533Y-60714286D01*
X196804819Y-60170833D02*
X196328628Y-59837500D01*
X196804819Y-59599405D02*
X195804819Y-59599405D01*
X195804819Y-59599405D02*
X195804819Y-59980357D01*
X195804819Y-59980357D02*
X195852438Y-60075595D01*
X195852438Y-60075595D02*
X195900057Y-60123214D01*
X195900057Y-60123214D02*
X195995295Y-60170833D01*
X195995295Y-60170833D02*
X196138152Y-60170833D01*
X196138152Y-60170833D02*
X196233390Y-60123214D01*
X196233390Y-60123214D02*
X196281009Y-60075595D01*
X196281009Y-60075595D02*
X196328628Y-59980357D01*
X196328628Y-59980357D02*
X196328628Y-59599405D01*
X195900057Y-60551786D02*
X195852438Y-60599405D01*
X195852438Y-60599405D02*
X195804819Y-60694643D01*
X195804819Y-60694643D02*
X195804819Y-60932738D01*
X195804819Y-60932738D02*
X195852438Y-61027976D01*
X195852438Y-61027976D02*
X195900057Y-61075595D01*
X195900057Y-61075595D02*
X195995295Y-61123214D01*
X195995295Y-61123214D02*
X196090533Y-61123214D01*
X196090533Y-61123214D02*
X196233390Y-61075595D01*
X196233390Y-61075595D02*
X196804819Y-60504167D01*
X196804819Y-60504167D02*
X196804819Y-61123214D01*
D11*
%TO.C,R1*%
X192265000Y-60272936D02*
X192265000Y-60727064D01*
X193735000Y-60272936D02*
X193735000Y-60727064D01*
%TO.C,R2*%
X198735000Y-60564564D02*
X198735000Y-60110436D01*
X197265000Y-60564564D02*
X197265000Y-60110436D01*
%TD*%
M02*
