M48
; DRILL file {KiCad 7.0.9} date 
; FORMAT={-:-/ absolute / inch / decimal}
; #@! TF.CreationDate,2024-06-26T15:28:42+02:00
; #@! TF.GenerationSoftware,Kicad,Pcbnew,7.0.9
; #@! TF.FileFunction,Plated,1,2,PTH
FMAT,2
INCH
; #@! TA.AperFunction,Plated,PTH,ViaDrill
T1C0.0157
; #@! TA.AperFunction,Plated,PTH,ComponentDrill
T2C0.0315
; #@! TA.AperFunction,Plated,PTH,ComponentDrill
T3C0.0354
; #@! TA.AperFunction,Plated,PTH,ComponentDrill
T4C0.0394
; #@! TA.AperFunction,Plated,PTH,ComponentDrill
T5C0.0409
; #@! TA.AperFunction,Plated,PTH,ComponentDrill
T6C0.0520
%
G90
G05
T1
X4.1Y-2.8
X4.2Y-2.9
X4.4Y-2.2
X4.8Y-3.6
X4.9Y-3.1
X5.4Y-2.5
X5.7Y-3.3
X5.9Y-4.3
X6.0Y-2.7
X6.4Y-2.5
X6.4Y-2.6
X6.5Y-3.2
X6.6Y-3.1
X6.6Y-3.3
X7.1Y-2.6
X7.4Y-3.8
X7.6Y-2.9
T2
X4.0Y-3.6213
X4.0Y-3.7
X4.3Y-3.3
X4.3Y-3.4969
X4.5Y-4.0031
X4.5Y-4.2
X4.6Y-3.3031
X4.6Y-3.5
X4.8Y-4.0
X4.8Y-4.1969
T3
X4.0Y-2.3
X4.0Y-2.4
X4.0Y-2.5
X4.0Y-2.6
X4.0Y-2.7
X4.0Y-2.8
X4.2Y-3.7
X4.2Y-3.8
X4.861Y-2.4
X4.861Y-2.5
X4.861Y-2.6
X4.861Y-2.7
X4.861Y-2.8
X4.861Y-2.9
T4
X4.0Y-3.1
X4.0Y-3.2
X4.0Y-3.3
X4.0Y-3.4
X5.5Y-2.1
X5.6Y-2.1
X5.7Y-2.1
X5.7Y-2.9
X5.8Y-2.1
X5.8Y-2.9
X5.9Y-2.1
X5.9Y-2.9
X6.0Y-2.1
X6.0Y-2.9
X6.1Y-2.1
X6.2Y-2.1
T5
X6.8Y-2.1
X6.8Y-2.2
X6.8Y-2.3
X6.8Y-2.4
X6.8Y-2.5
X6.8Y-2.6
X6.8Y-2.7
X6.8Y-2.8
X6.8Y-2.9
X6.8Y-3.0
X6.8Y-3.1
X6.8Y-3.2
X6.8Y-3.3
X6.8Y-3.4
X6.8Y-3.5
X6.8Y-3.6
X6.8Y-3.7
X6.8Y-3.8
X6.8Y-3.9
X7.8Y-2.1
X7.8Y-2.2
X7.8Y-2.3
X7.8Y-2.4
X7.8Y-2.5
X7.8Y-2.6
X7.8Y-2.7
X7.8Y-2.8
X7.8Y-2.9
X7.8Y-3.0
X7.8Y-3.1
X7.8Y-3.2
X7.8Y-3.3
X7.8Y-3.4
X7.8Y-3.5
X7.8Y-3.6
X7.8Y-3.7
X7.8Y-3.8
X7.8Y-3.9
T6
X4.0Y-4.0
X4.0Y-4.1969
T0
M30
