%TF.GenerationSoftware,KiCad,Pcbnew,7.0.9*%
%TF.CreationDate,2024-06-26T15:28:39+02:00*%
%TF.ProjectId,esp32-with-gsm,65737033-322d-4776-9974-682d67736d2e,rev?*%
%TF.SameCoordinates,Original*%
%TF.FileFunction,Soldermask,Top*%
%TF.FilePolarity,Negative*%
%FSLAX46Y46*%
G04 Gerber Fmt 4.6, Leading zero omitted, Abs format (unit mm)*
G04 Created by KiCad (PCBNEW 7.0.9) date 2024-06-26 15:28:39*
%MOMM*%
%LPD*%
G01*
G04 APERTURE LIST*
G04 Aperture macros list*
%AMRoundRect*
0 Rectangle with rounded corners*
0 $1 Rounding radius*
0 $2 $3 $4 $5 $6 $7 $8 $9 X,Y pos of 4 corners*
0 Add a 4 corners polygon primitive as box body*
4,1,4,$2,$3,$4,$5,$6,$7,$8,$9,$2,$3,0*
0 Add four circle primitives for the rounded corners*
1,1,$1+$1,$2,$3*
1,1,$1+$1,$4,$5*
1,1,$1+$1,$6,$7*
1,1,$1+$1,$8,$9*
0 Add four rect primitives between the rounded corners*
20,1,$1+$1,$2,$3,$4,$5,0*
20,1,$1+$1,$4,$5,$6,$7,0*
20,1,$1+$1,$6,$7,$8,$9,0*
20,1,$1+$1,$8,$9,$2,$3,0*%
G04 Aperture macros list end*
%ADD10RoundRect,0.250000X-0.450000X0.325000X-0.450000X-0.325000X0.450000X-0.325000X0.450000X0.325000X0*%
%ADD11RoundRect,0.250000X0.262500X0.450000X-0.262500X0.450000X-0.262500X-0.450000X0.262500X-0.450000X0*%
%ADD12C,1.600000*%
%ADD13C,1.900000*%
%ADD14R,1.350000X1.350000*%
%ADD15O,1.350000X1.350000*%
%ADD16R,1.700000X1.700000*%
%ADD17O,1.700000X1.700000*%
%ADD18RoundRect,0.102000X0.780000X0.780000X-0.780000X0.780000X-0.780000X-0.780000X0.780000X-0.780000X0*%
%ADD19C,1.764000*%
%ADD20R,1.800000X1.800000*%
%ADD21C,1.800000*%
%ADD22R,3.960000X1.980000*%
%ADD23O,3.960000X1.980000*%
G04 APERTURE END LIST*
D10*
%TO.C,D2*%
X119380000Y-95495000D03*
X119380000Y-97545000D03*
%TD*%
D11*
%TO.C,R3*%
X125372500Y-91440000D03*
X123547500Y-91440000D03*
%TD*%
D12*
%TO.C,C1*%
X114300000Y-106680000D03*
X114300000Y-101680000D03*
%TD*%
D13*
%TO.C,U2*%
X101600000Y-58420000D03*
X101600000Y-60960000D03*
X101600000Y-63500000D03*
X101600000Y-66040000D03*
X101600000Y-68580000D03*
X101600000Y-71120000D03*
X123470000Y-73660000D03*
X123470000Y-71120000D03*
X123470000Y-68580000D03*
X123470000Y-66040000D03*
X123470000Y-63500000D03*
X123470000Y-60960000D03*
%TD*%
D12*
%TO.C,C2*%
X121920000Y-106600000D03*
X121920000Y-101600000D03*
%TD*%
D14*
%TO.C,CFG1*%
X101600000Y-93980000D03*
D15*
X101600000Y-91980000D03*
%TD*%
D16*
%TO.C,J1*%
X101600000Y-78740000D03*
D17*
X101600000Y-81280000D03*
X101600000Y-83820000D03*
X101600000Y-86360000D03*
%TD*%
D18*
%TO.C,U1*%
X198120000Y-99060000D03*
D19*
X198120000Y-96520000D03*
X198120000Y-93980000D03*
X198120000Y-91440000D03*
X198120000Y-88900000D03*
X198120000Y-86360000D03*
X198120000Y-83820000D03*
X198120000Y-81280000D03*
X198120000Y-78740000D03*
X198120000Y-76200000D03*
X198120000Y-73660000D03*
X198120000Y-71120000D03*
X198120000Y-68580000D03*
X198120000Y-66040000D03*
X198120000Y-63500000D03*
X198120000Y-60960000D03*
X198120000Y-58420000D03*
X198120000Y-55880000D03*
X198120000Y-53340000D03*
X172720000Y-99060000D03*
X172720000Y-96520000D03*
X172720000Y-93980000D03*
X172720000Y-91440000D03*
X172720000Y-88900000D03*
X172720000Y-86360000D03*
X172720000Y-83820000D03*
X172720000Y-81280000D03*
X172720000Y-78740000D03*
X172720000Y-76200000D03*
X172720000Y-73660000D03*
X172720000Y-71120000D03*
X172720000Y-68580000D03*
X172720000Y-66040000D03*
X172720000Y-63500000D03*
X172720000Y-60960000D03*
X172720000Y-58420000D03*
X172720000Y-55880000D03*
X172720000Y-53340000D03*
%TD*%
D16*
%TO.C,J4*%
X144780000Y-73660000D03*
D17*
X147320000Y-73660000D03*
X149860000Y-73660000D03*
X152400000Y-73660000D03*
%TD*%
D12*
%TO.C,C3*%
X116840000Y-83900000D03*
X116840000Y-88900000D03*
%TD*%
D20*
%TO.C,D3*%
X106680000Y-96520000D03*
D21*
X106680000Y-93980000D03*
%TD*%
D22*
%TO.C,J5*%
X101600000Y-106600000D03*
D23*
X101600000Y-101600000D03*
%TD*%
D12*
%TO.C,C4*%
X109220000Y-83820000D03*
X109220000Y-88820000D03*
%TD*%
D16*
%TO.C,J3*%
X157480000Y-53340000D03*
D17*
X154940000Y-53340000D03*
X152400000Y-53340000D03*
X149860000Y-53340000D03*
X147320000Y-53340000D03*
X144780000Y-53340000D03*
X142240000Y-53340000D03*
X139700000Y-53340000D03*
%TD*%
D10*
%TO.C,D1*%
X114300000Y-95495000D03*
X114300000Y-97545000D03*
%TD*%
M02*
