%TF.GenerationSoftware,KiCad,Pcbnew,8.0.5*%
%TF.CreationDate,2024-11-19T23:46:25+01:00*%
%TF.ProjectId,esp32-with-gsm,65737033-322d-4776-9974-682d67736d2e,rev?*%
%TF.SameCoordinates,Original*%
%TF.FileFunction,Soldermask,Bot*%
%TF.FilePolarity,Negative*%
%FSLAX46Y46*%
G04 Gerber Fmt 4.6, Leading zero omitted, Abs format (unit mm)*
G04 Created by KiCad (PCBNEW 8.0.5) date 2024-11-19 23:46:25*
%MOMM*%
%LPD*%
G01*
G04 APERTURE LIST*
G04 Aperture macros list*
%AMRoundRect*
0 Rectangle with rounded corners*
0 $1 Rounding radius*
0 $2 $3 $4 $5 $6 $7 $8 $9 X,Y pos of 4 corners*
0 Add a 4 corners polygon primitive as box body*
4,1,4,$2,$3,$4,$5,$6,$7,$8,$9,$2,$3,0*
0 Add four circle primitives for the rounded corners*
1,1,$1+$1,$2,$3*
1,1,$1+$1,$4,$5*
1,1,$1+$1,$6,$7*
1,1,$1+$1,$8,$9*
0 Add four rect primitives between the rounded corners*
20,1,$1+$1,$2,$3,$4,$5,0*
20,1,$1+$1,$4,$5,$6,$7,0*
20,1,$1+$1,$6,$7,$8,$9,0*
20,1,$1+$1,$8,$9,$2,$3,0*%
G04 Aperture macros list end*
%ADD10O,1.800000X2.600000*%
%ADD11R,1.800000X2.600000*%
%ADD12C,3.000000*%
%ADD13C,2.000000*%
%ADD14R,2.000000X2.000000*%
%ADD15C,1.900000*%
%ADD16R,1.700000X1.700000*%
%ADD17O,1.700000X1.700000*%
%ADD18O,1.350000X1.350000*%
%ADD19R,1.350000X1.350000*%
%ADD20O,1.050000X1.500000*%
%ADD21R,1.050000X1.500000*%
%ADD22RoundRect,0.102000X0.780000X0.780000X-0.780000X0.780000X-0.780000X-0.780000X0.780000X-0.780000X0*%
%ADD23C,1.764000*%
%ADD24C,1.600000*%
%ADD25C,1.800000*%
%ADD26R,1.800000X1.800000*%
%ADD27O,3.960000X1.980000*%
%ADD28R,3.960000X1.980000*%
%ADD29RoundRect,0.250000X0.450000X-0.262500X0.450000X0.262500X-0.450000X0.262500X-0.450000X-0.262500X0*%
%ADD30RoundRect,0.250000X-0.450000X0.262500X-0.450000X-0.262500X0.450000X-0.262500X0.450000X0.262500X0*%
G04 APERTURE END LIST*
D10*
%TO.C,DS1*%
X145600520Y-53499300D03*
X143060520Y-53499300D03*
X140520520Y-53499300D03*
X137980520Y-53499300D03*
X135440520Y-53499300D03*
X132900520Y-53499300D03*
X130360520Y-53499300D03*
X127820520Y-53499300D03*
X125280520Y-53499300D03*
X122740520Y-53499300D03*
X120200520Y-53499300D03*
X117660520Y-53499300D03*
X115120520Y-53499300D03*
X112580520Y-53499300D03*
X110040520Y-53499300D03*
D11*
X107500520Y-53499300D03*
D12*
X177000520Y-53499300D03*
X177000000Y-84500000D03*
X102001420Y-84500000D03*
X102001420Y-53499300D03*
%TD*%
D13*
%TO.C,BZ1*%
X110550000Y-131500000D03*
D14*
X102950000Y-131500000D03*
%TD*%
D15*
%TO.C,U2*%
X101680000Y-125460000D03*
X101680000Y-122920000D03*
X101680000Y-120380000D03*
X101680000Y-117840000D03*
X101680000Y-115300000D03*
X101680000Y-112760000D03*
X123550000Y-115300000D03*
X123550000Y-117840000D03*
X123550000Y-120380000D03*
X123550000Y-122920000D03*
X123550000Y-125460000D03*
X123550000Y-128000000D03*
%TD*%
D16*
%TO.C,J2*%
X166750000Y-79330000D03*
D17*
X166750000Y-76790000D03*
X166750000Y-74250000D03*
X166750000Y-71710000D03*
X166750000Y-69170000D03*
X166750000Y-66630000D03*
X166750000Y-64090000D03*
X166750000Y-61550000D03*
%TD*%
D18*
%TO.C,CFG1*%
X196750000Y-55500000D03*
D19*
X194750000Y-55500000D03*
%TD*%
D17*
%TO.C,J1*%
X101250000Y-70790000D03*
X101250000Y-68250000D03*
X101250000Y-65710000D03*
D16*
X101250000Y-63170000D03*
%TD*%
D20*
%TO.C,Q1*%
X117520000Y-131360000D03*
X116250000Y-131360000D03*
D21*
X114980000Y-131360000D03*
%TD*%
D22*
%TO.C,U1*%
X197000000Y-137010000D03*
D23*
X197000000Y-134470000D03*
X197000000Y-131930000D03*
X197000000Y-129390000D03*
X197000000Y-126850000D03*
X197000000Y-124310000D03*
X197000000Y-121770000D03*
X197000000Y-119230000D03*
X197000000Y-116690000D03*
X197000000Y-114150000D03*
X197000000Y-111610000D03*
X197000000Y-109070000D03*
X197000000Y-106530000D03*
X197000000Y-103990000D03*
X197000000Y-101450000D03*
X197000000Y-98910000D03*
X197000000Y-96370000D03*
X197000000Y-93830000D03*
X197000000Y-91290000D03*
X172800000Y-137010000D03*
X172800000Y-134470000D03*
X172800000Y-131930000D03*
X172800000Y-129390000D03*
X172800000Y-126850000D03*
X172800000Y-124310000D03*
X172800000Y-121770000D03*
X172800000Y-119230000D03*
X172800000Y-116690000D03*
X172800000Y-114150000D03*
X172800000Y-111610000D03*
X172800000Y-109070000D03*
X172800000Y-106530000D03*
X172800000Y-103990000D03*
X172800000Y-101450000D03*
X172800000Y-98910000D03*
X172800000Y-96370000D03*
X172800000Y-93830000D03*
X172800000Y-91290000D03*
%TD*%
D20*
%TO.C,Q2*%
X156040000Y-55250000D03*
X154770000Y-55250000D03*
D21*
X153500000Y-55250000D03*
%TD*%
D24*
%TO.C,C3*%
X124250000Y-100000000D03*
X124250000Y-105000000D03*
%TD*%
D25*
%TO.C,D3*%
X183765000Y-53750000D03*
D26*
X181225000Y-53750000D03*
%TD*%
D27*
%TO.C,J5*%
X101750000Y-97000000D03*
D28*
X101750000Y-102000000D03*
%TD*%
D24*
%TO.C,C4*%
X115500000Y-100000000D03*
X115500000Y-105000000D03*
%TD*%
D16*
%TO.C,J3*%
X157910000Y-92500000D03*
D17*
X155370000Y-92500000D03*
X152830000Y-92500000D03*
X150290000Y-92500000D03*
X147750000Y-92500000D03*
X145210000Y-92500000D03*
X142670000Y-92500000D03*
X140130000Y-92500000D03*
%TD*%
D29*
%TO.C,R1*%
X193000000Y-59587500D03*
X193000000Y-61412500D03*
%TD*%
D30*
%TO.C,R2*%
X198000000Y-59425000D03*
X198000000Y-61250000D03*
%TD*%
M02*
