%TF.GenerationSoftware,KiCad,Pcbnew,7.0.9*%
%TF.CreationDate,2024-06-26T15:28:39+02:00*%
%TF.ProjectId,esp32-with-gsm,65737033-322d-4776-9974-682d67736d2e,rev?*%
%TF.SameCoordinates,Original*%
%TF.FileFunction,Legend,Bot*%
%TF.FilePolarity,Positive*%
%FSLAX46Y46*%
G04 Gerber Fmt 4.6, Leading zero omitted, Abs format (unit mm)*
G04 Created by KiCad (PCBNEW 7.0.9) date 2024-06-26 15:28:39*
%MOMM*%
%LPD*%
G01*
G04 APERTURE LIST*
%ADD10C,0.150000*%
%ADD11C,0.120000*%
G04 APERTURE END LIST*
D10*
X105484819Y-86193333D02*
X105008628Y-85860000D01*
X105484819Y-85621905D02*
X104484819Y-85621905D01*
X104484819Y-85621905D02*
X104484819Y-86002857D01*
X104484819Y-86002857D02*
X104532438Y-86098095D01*
X104532438Y-86098095D02*
X104580057Y-86145714D01*
X104580057Y-86145714D02*
X104675295Y-86193333D01*
X104675295Y-86193333D02*
X104818152Y-86193333D01*
X104818152Y-86193333D02*
X104913390Y-86145714D01*
X104913390Y-86145714D02*
X104961009Y-86098095D01*
X104961009Y-86098095D02*
X105008628Y-86002857D01*
X105008628Y-86002857D02*
X105008628Y-85621905D01*
X105484819Y-87145714D02*
X105484819Y-86574286D01*
X105484819Y-86860000D02*
X104484819Y-86860000D01*
X104484819Y-86860000D02*
X104627676Y-86764762D01*
X104627676Y-86764762D02*
X104722914Y-86669524D01*
X104722914Y-86669524D02*
X104770533Y-86574286D01*
X106244819Y-89645833D02*
X105768628Y-89312500D01*
X106244819Y-89074405D02*
X105244819Y-89074405D01*
X105244819Y-89074405D02*
X105244819Y-89455357D01*
X105244819Y-89455357D02*
X105292438Y-89550595D01*
X105292438Y-89550595D02*
X105340057Y-89598214D01*
X105340057Y-89598214D02*
X105435295Y-89645833D01*
X105435295Y-89645833D02*
X105578152Y-89645833D01*
X105578152Y-89645833D02*
X105673390Y-89598214D01*
X105673390Y-89598214D02*
X105721009Y-89550595D01*
X105721009Y-89550595D02*
X105768628Y-89455357D01*
X105768628Y-89455357D02*
X105768628Y-89074405D01*
X105340057Y-90026786D02*
X105292438Y-90074405D01*
X105292438Y-90074405D02*
X105244819Y-90169643D01*
X105244819Y-90169643D02*
X105244819Y-90407738D01*
X105244819Y-90407738D02*
X105292438Y-90502976D01*
X105292438Y-90502976D02*
X105340057Y-90550595D01*
X105340057Y-90550595D02*
X105435295Y-90598214D01*
X105435295Y-90598214D02*
X105530533Y-90598214D01*
X105530533Y-90598214D02*
X105673390Y-90550595D01*
X105673390Y-90550595D02*
X106244819Y-89979167D01*
X106244819Y-89979167D02*
X106244819Y-90598214D01*
D11*
%TO.C,R1*%
X107415000Y-86132936D02*
X107415000Y-86587064D01*
X105945000Y-86132936D02*
X105945000Y-86587064D01*
%TO.C,R2*%
X103405000Y-90039564D02*
X103405000Y-89585436D01*
X104875000Y-90039564D02*
X104875000Y-89585436D01*
%TD*%
M02*
