M48
; DRILL file {KiCad 8.0.5} date 2024-11-19T23:46:32+0100
; FORMAT={-:-/ absolute / inch / decimal}
; #@! TF.CreationDate,2024-11-19T23:46:32+01:00
; #@! TF.GenerationSoftware,Kicad,Pcbnew,8.0.5
; #@! TF.FileFunction,Plated,1,2,PTH
FMAT,2
INCH
; #@! TA.AperFunction,Plated,PTH,ViaDrill
T1C0.0157
; #@! TA.AperFunction,Plated,PTH,ComponentDrill
T2C0.0295
; #@! TA.AperFunction,Plated,PTH,ComponentDrill
T3C0.0315
; #@! TA.AperFunction,Plated,PTH,ComponentDrill
T4C0.0354
; #@! TA.AperFunction,Plated,PTH,ComponentDrill
T5C0.0394
; #@! TA.AperFunction,Plated,PTH,ComponentDrill
T6C0.0409
; #@! TA.AperFunction,Plated,PTH,ComponentDrill
T7C0.0472
; #@! TA.AperFunction,Plated,PTH,ComponentDrill
T8C0.0520
; #@! TA.AperFunction,Plated,PTH,ComponentDrill
T9C0.0984
%
G90
G05
T1
X4.2126Y-3.1102
X4.4094Y-2.4016
X5.0984Y-3.7697
X5.1378Y-3.8189
X5.187Y-3.8681
X5.2165Y-3.7106
X5.2559Y-3.4843
X5.2854Y-3.4055
X5.3346Y-3.3366
X5.4232Y-4.1437
X5.5709Y-3.7697
X5.5709Y-3.9469
X5.5807Y-3.8386
X5.5807Y-3.8878
X5.6169Y-4.1142
X5.6169Y-4.626
X5.9154Y-4.1043
X5.9154Y-4.5965
X6.0138Y-4.1043
X6.0138Y-4.7343
X6.0925Y-2.6083
X6.122Y-3.1988
X6.122Y-4.1043
X6.122Y-4.5866
X6.1319Y-3.0118
X6.1639Y-2.8125
X6.1713Y-3.1594
X6.2169Y-4.1008
X6.2169Y-4.4846
X6.2402Y-2.7559
X6.2894Y-2.8346
X6.3484Y-3.002
X6.3583Y-4.1043
X6.3681Y-3.6319
X6.4075Y-3.622
X6.4075Y-4.1043
X6.437Y-2.6181
X6.4567Y-3.5236
X6.4862Y-3.4843
X6.4911Y-3.4203
X6.5059Y-3.3071
X6.5354Y-5.0
X6.5748Y-3.2972
X6.6535Y-5.128
X7.1358Y-3.4252
X7.1358Y-3.4843
X7.1742Y-3.3671
X7.2441Y-4.124
X7.2539Y-3.9961
X7.2835Y-4.8524
X7.3031Y-2.7854
X7.3425Y-3.4252
X7.3524Y-3.4843
X7.3622Y-3.1102
X7.4114Y-3.9862
T2
X4.5268Y-5.1717
X4.5768Y-5.1717
X4.6268Y-5.1717
X6.0433Y-2.1752
X6.0933Y-2.1752
X6.1433Y-2.1752
T3
X4.5472Y-3.937
X4.5472Y-4.1339
X4.8917Y-3.937
X4.8917Y-4.1339
X7.6673Y-2.185
X7.7461Y-2.185
T4
X4.0031Y-4.4394
X4.0031Y-4.5394
X4.0031Y-4.6394
X4.0031Y-4.7394
X4.0031Y-4.8394
X4.0031Y-4.9394
X4.8642Y-4.5394
X4.8642Y-4.6394
X4.8642Y-4.7394
X4.8642Y-4.8394
X4.8642Y-4.9394
X4.8642Y-5.0394
X7.1348Y-2.1161
X7.2348Y-2.1161
T5
X3.9862Y-2.487
X3.9862Y-2.587
X3.9862Y-2.687
X3.9862Y-2.787
X4.0531Y-5.1772
X4.3524Y-5.1772
X5.5169Y-3.6417
X5.6169Y-3.6417
X5.7169Y-3.6417
X5.8169Y-3.6417
X5.9169Y-3.6417
X6.0169Y-3.6417
X6.1169Y-3.6417
X6.2169Y-3.6417
X6.565Y-2.4232
X6.565Y-2.5232
X6.565Y-2.6232
X6.565Y-2.7232
X6.565Y-2.8232
X6.565Y-2.9232
X6.565Y-3.0232
X6.565Y-3.1232
T6
X6.8031Y-3.5941
X6.8031Y-3.6941
X6.8031Y-3.7941
X6.8031Y-3.8941
X6.8031Y-3.9941
X6.8031Y-4.0941
X6.8031Y-4.1941
X6.8031Y-4.2941
X6.8031Y-4.3941
X6.8031Y-4.4941
X6.8031Y-4.5941
X6.8031Y-4.6941
X6.8031Y-4.7941
X6.8031Y-4.8941
X6.8031Y-4.9941
X6.8031Y-5.0941
X6.8031Y-5.1941
X6.8031Y-5.2941
X6.8031Y-5.3941
X7.7559Y-3.5941
X7.7559Y-3.6941
X7.7559Y-3.7941
X7.7559Y-3.8941
X7.7559Y-3.9941
X7.7559Y-4.0941
X7.7559Y-4.1941
X7.7559Y-4.2941
X7.7559Y-4.3941
X7.7559Y-4.4941
X7.7559Y-4.5941
X7.7559Y-4.6941
X7.7559Y-4.7941
X7.7559Y-4.8941
X7.7559Y-4.9941
X7.7559Y-5.0941
X7.7559Y-5.1941
X7.7559Y-5.2941
X7.7559Y-5.3941
T7
X4.2323Y-2.1063
X4.3323Y-2.1063
X4.4323Y-2.1063
X4.5323Y-2.1063
X4.6323Y-2.1063
X4.7323Y-2.1063
X4.8323Y-2.1063
X4.9323Y-2.1063
X5.0323Y-2.1063
X5.1323Y-2.1063
X5.2323Y-2.1063
X5.3323Y-2.1063
X5.4323Y-2.1063
X5.5323Y-2.1063
X5.6323Y-2.1063
X5.7323Y-2.1063
T8
X4.0059Y-3.8189
X4.0059Y-4.0157
T9
X4.0158Y-2.1063
X4.0158Y-3.3268
X6.9685Y-3.3268
X6.9685Y-2.1063
M30
