%TF.GenerationSoftware,KiCad,Pcbnew,8.0.5*%
%TF.CreationDate,2024-11-19T23:46:25+01:00*%
%TF.ProjectId,esp32-with-gsm,65737033-322d-4776-9974-682d67736d2e,rev?*%
%TF.SameCoordinates,Original*%
%TF.FileFunction,Legend,Top*%
%TF.FilePolarity,Positive*%
%FSLAX46Y46*%
G04 Gerber Fmt 4.6, Leading zero omitted, Abs format (unit mm)*
G04 Created by KiCad (PCBNEW 8.0.5) date 2024-11-19 23:46:25*
%MOMM*%
%LPD*%
G01*
G04 APERTURE LIST*
%ADD10C,0.150000*%
%ADD11C,0.120000*%
%ADD12C,0.127000*%
%ADD13C,0.200000*%
G04 APERTURE END LIST*
D10*
X161511905Y-72854819D02*
X161511905Y-71854819D01*
X161511905Y-71854819D02*
X161750000Y-71854819D01*
X161750000Y-71854819D02*
X161892857Y-71902438D01*
X161892857Y-71902438D02*
X161988095Y-71997676D01*
X161988095Y-71997676D02*
X162035714Y-72092914D01*
X162035714Y-72092914D02*
X162083333Y-72283390D01*
X162083333Y-72283390D02*
X162083333Y-72426247D01*
X162083333Y-72426247D02*
X162035714Y-72616723D01*
X162035714Y-72616723D02*
X161988095Y-72711961D01*
X161988095Y-72711961D02*
X161892857Y-72807200D01*
X161892857Y-72807200D02*
X161750000Y-72854819D01*
X161750000Y-72854819D02*
X161511905Y-72854819D01*
X162416667Y-71854819D02*
X163083333Y-71854819D01*
X163083333Y-71854819D02*
X162654762Y-72854819D01*
X157511905Y-78604819D02*
X157511905Y-77604819D01*
X157511905Y-77604819D02*
X157750000Y-77604819D01*
X157750000Y-77604819D02*
X157892857Y-77652438D01*
X157892857Y-77652438D02*
X157988095Y-77747676D01*
X157988095Y-77747676D02*
X158035714Y-77842914D01*
X158035714Y-77842914D02*
X158083333Y-78033390D01*
X158083333Y-78033390D02*
X158083333Y-78176247D01*
X158083333Y-78176247D02*
X158035714Y-78366723D01*
X158035714Y-78366723D02*
X157988095Y-78461961D01*
X157988095Y-78461961D02*
X157892857Y-78557200D01*
X157892857Y-78557200D02*
X157750000Y-78604819D01*
X157750000Y-78604819D02*
X157511905Y-78604819D01*
X158940476Y-77604819D02*
X158750000Y-77604819D01*
X158750000Y-77604819D02*
X158654762Y-77652438D01*
X158654762Y-77652438D02*
X158607143Y-77700057D01*
X158607143Y-77700057D02*
X158511905Y-77842914D01*
X158511905Y-77842914D02*
X158464286Y-78033390D01*
X158464286Y-78033390D02*
X158464286Y-78414342D01*
X158464286Y-78414342D02*
X158511905Y-78509580D01*
X158511905Y-78509580D02*
X158559524Y-78557200D01*
X158559524Y-78557200D02*
X158654762Y-78604819D01*
X158654762Y-78604819D02*
X158845238Y-78604819D01*
X158845238Y-78604819D02*
X158940476Y-78557200D01*
X158940476Y-78557200D02*
X158988095Y-78509580D01*
X158988095Y-78509580D02*
X159035714Y-78414342D01*
X159035714Y-78414342D02*
X159035714Y-78176247D01*
X159035714Y-78176247D02*
X158988095Y-78081009D01*
X158988095Y-78081009D02*
X158940476Y-78033390D01*
X158940476Y-78033390D02*
X158845238Y-77985771D01*
X158845238Y-77985771D02*
X158654762Y-77985771D01*
X158654762Y-77985771D02*
X158559524Y-78033390D01*
X158559524Y-78033390D02*
X158511905Y-78081009D01*
X158511905Y-78081009D02*
X158464286Y-78176247D01*
X161011905Y-65104819D02*
X161011905Y-64104819D01*
X161011905Y-64104819D02*
X161250000Y-64104819D01*
X161250000Y-64104819D02*
X161392857Y-64152438D01*
X161392857Y-64152438D02*
X161488095Y-64247676D01*
X161488095Y-64247676D02*
X161535714Y-64342914D01*
X161535714Y-64342914D02*
X161583333Y-64533390D01*
X161583333Y-64533390D02*
X161583333Y-64676247D01*
X161583333Y-64676247D02*
X161535714Y-64866723D01*
X161535714Y-64866723D02*
X161488095Y-64961961D01*
X161488095Y-64961961D02*
X161392857Y-65057200D01*
X161392857Y-65057200D02*
X161250000Y-65104819D01*
X161250000Y-65104819D02*
X161011905Y-65104819D01*
X162488095Y-64104819D02*
X162011905Y-64104819D01*
X162011905Y-64104819D02*
X161964286Y-64581009D01*
X161964286Y-64581009D02*
X162011905Y-64533390D01*
X162011905Y-64533390D02*
X162107143Y-64485771D01*
X162107143Y-64485771D02*
X162345238Y-64485771D01*
X162345238Y-64485771D02*
X162440476Y-64533390D01*
X162440476Y-64533390D02*
X162488095Y-64581009D01*
X162488095Y-64581009D02*
X162535714Y-64676247D01*
X162535714Y-64676247D02*
X162535714Y-64914342D01*
X162535714Y-64914342D02*
X162488095Y-65009580D01*
X162488095Y-65009580D02*
X162440476Y-65057200D01*
X162440476Y-65057200D02*
X162345238Y-65104819D01*
X162345238Y-65104819D02*
X162107143Y-65104819D01*
X162107143Y-65104819D02*
X162011905Y-65057200D01*
X162011905Y-65057200D02*
X161964286Y-65009580D01*
X156761905Y-70854819D02*
X156761905Y-69854819D01*
X156761905Y-69854819D02*
X157000000Y-69854819D01*
X157000000Y-69854819D02*
X157142857Y-69902438D01*
X157142857Y-69902438D02*
X157238095Y-69997676D01*
X157238095Y-69997676D02*
X157285714Y-70092914D01*
X157285714Y-70092914D02*
X157333333Y-70283390D01*
X157333333Y-70283390D02*
X157333333Y-70426247D01*
X157333333Y-70426247D02*
X157285714Y-70616723D01*
X157285714Y-70616723D02*
X157238095Y-70711961D01*
X157238095Y-70711961D02*
X157142857Y-70807200D01*
X157142857Y-70807200D02*
X157000000Y-70854819D01*
X157000000Y-70854819D02*
X156761905Y-70854819D01*
X158190476Y-70188152D02*
X158190476Y-70854819D01*
X157952381Y-69807200D02*
X157714286Y-70521485D01*
X157714286Y-70521485D02*
X158333333Y-70521485D01*
X118554819Y-95988094D02*
X117554819Y-95988094D01*
X117554819Y-95988094D02*
X117554819Y-95749999D01*
X117554819Y-95749999D02*
X117602438Y-95607142D01*
X117602438Y-95607142D02*
X117697676Y-95511904D01*
X117697676Y-95511904D02*
X117792914Y-95464285D01*
X117792914Y-95464285D02*
X117983390Y-95416666D01*
X117983390Y-95416666D02*
X118126247Y-95416666D01*
X118126247Y-95416666D02*
X118316723Y-95464285D01*
X118316723Y-95464285D02*
X118411961Y-95511904D01*
X118411961Y-95511904D02*
X118507200Y-95607142D01*
X118507200Y-95607142D02*
X118554819Y-95749999D01*
X118554819Y-95749999D02*
X118554819Y-95988094D01*
X117650057Y-95035713D02*
X117602438Y-94988094D01*
X117602438Y-94988094D02*
X117554819Y-94892856D01*
X117554819Y-94892856D02*
X117554819Y-94654761D01*
X117554819Y-94654761D02*
X117602438Y-94559523D01*
X117602438Y-94559523D02*
X117650057Y-94511904D01*
X117650057Y-94511904D02*
X117745295Y-94464285D01*
X117745295Y-94464285D02*
X117840533Y-94464285D01*
X117840533Y-94464285D02*
X117983390Y-94511904D01*
X117983390Y-94511904D02*
X118554819Y-95083332D01*
X118554819Y-95083332D02*
X118554819Y-94464285D01*
X114304819Y-96050594D02*
X113304819Y-96050594D01*
X113304819Y-96050594D02*
X113304819Y-95812499D01*
X113304819Y-95812499D02*
X113352438Y-95669642D01*
X113352438Y-95669642D02*
X113447676Y-95574404D01*
X113447676Y-95574404D02*
X113542914Y-95526785D01*
X113542914Y-95526785D02*
X113733390Y-95479166D01*
X113733390Y-95479166D02*
X113876247Y-95479166D01*
X113876247Y-95479166D02*
X114066723Y-95526785D01*
X114066723Y-95526785D02*
X114161961Y-95574404D01*
X114161961Y-95574404D02*
X114257200Y-95669642D01*
X114257200Y-95669642D02*
X114304819Y-95812499D01*
X114304819Y-95812499D02*
X114304819Y-96050594D01*
X114304819Y-94526785D02*
X114304819Y-95098213D01*
X114304819Y-94812499D02*
X113304819Y-94812499D01*
X113304819Y-94812499D02*
X113447676Y-94907737D01*
X113447676Y-94907737D02*
X113542914Y-95002975D01*
X113542914Y-95002975D02*
X113590533Y-95098213D01*
X183054819Y-58416666D02*
X182578628Y-58749999D01*
X183054819Y-58988094D02*
X182054819Y-58988094D01*
X182054819Y-58988094D02*
X182054819Y-58607142D01*
X182054819Y-58607142D02*
X182102438Y-58511904D01*
X182102438Y-58511904D02*
X182150057Y-58464285D01*
X182150057Y-58464285D02*
X182245295Y-58416666D01*
X182245295Y-58416666D02*
X182388152Y-58416666D01*
X182388152Y-58416666D02*
X182483390Y-58464285D01*
X182483390Y-58464285D02*
X182531009Y-58511904D01*
X182531009Y-58511904D02*
X182578628Y-58607142D01*
X182578628Y-58607142D02*
X182578628Y-58988094D01*
X182054819Y-58083332D02*
X182054819Y-57464285D01*
X182054819Y-57464285D02*
X182435771Y-57797618D01*
X182435771Y-57797618D02*
X182435771Y-57654761D01*
X182435771Y-57654761D02*
X182483390Y-57559523D01*
X182483390Y-57559523D02*
X182531009Y-57511904D01*
X182531009Y-57511904D02*
X182626247Y-57464285D01*
X182626247Y-57464285D02*
X182864342Y-57464285D01*
X182864342Y-57464285D02*
X182959580Y-57511904D01*
X182959580Y-57511904D02*
X183007200Y-57559523D01*
X183007200Y-57559523D02*
X183054819Y-57654761D01*
X183054819Y-57654761D02*
X183054819Y-57940475D01*
X183054819Y-57940475D02*
X183007200Y-58035713D01*
X183007200Y-58035713D02*
X182959580Y-58083332D01*
X161583333Y-68604819D02*
X161250000Y-68128628D01*
X161011905Y-68604819D02*
X161011905Y-67604819D01*
X161011905Y-67604819D02*
X161392857Y-67604819D01*
X161392857Y-67604819D02*
X161488095Y-67652438D01*
X161488095Y-67652438D02*
X161535714Y-67700057D01*
X161535714Y-67700057D02*
X161583333Y-67795295D01*
X161583333Y-67795295D02*
X161583333Y-67938152D01*
X161583333Y-67938152D02*
X161535714Y-68033390D01*
X161535714Y-68033390D02*
X161488095Y-68081009D01*
X161488095Y-68081009D02*
X161392857Y-68128628D01*
X161392857Y-68128628D02*
X161011905Y-68128628D01*
X162488095Y-67604819D02*
X162011905Y-67604819D01*
X162011905Y-67604819D02*
X161964286Y-68081009D01*
X161964286Y-68081009D02*
X162011905Y-68033390D01*
X162011905Y-68033390D02*
X162107143Y-67985771D01*
X162107143Y-67985771D02*
X162345238Y-67985771D01*
X162345238Y-67985771D02*
X162440476Y-68033390D01*
X162440476Y-68033390D02*
X162488095Y-68081009D01*
X162488095Y-68081009D02*
X162535714Y-68176247D01*
X162535714Y-68176247D02*
X162535714Y-68414342D01*
X162535714Y-68414342D02*
X162488095Y-68509580D01*
X162488095Y-68509580D02*
X162440476Y-68557200D01*
X162440476Y-68557200D02*
X162345238Y-68604819D01*
X162345238Y-68604819D02*
X162107143Y-68604819D01*
X162107143Y-68604819D02*
X162011905Y-68557200D01*
X162011905Y-68557200D02*
X161964286Y-68509580D01*
X100466234Y-50144119D02*
X100466234Y-49144119D01*
X100466234Y-49144119D02*
X100704329Y-49144119D01*
X100704329Y-49144119D02*
X100847186Y-49191738D01*
X100847186Y-49191738D02*
X100942424Y-49286976D01*
X100942424Y-49286976D02*
X100990043Y-49382214D01*
X100990043Y-49382214D02*
X101037662Y-49572690D01*
X101037662Y-49572690D02*
X101037662Y-49715547D01*
X101037662Y-49715547D02*
X100990043Y-49906023D01*
X100990043Y-49906023D02*
X100942424Y-50001261D01*
X100942424Y-50001261D02*
X100847186Y-50096500D01*
X100847186Y-50096500D02*
X100704329Y-50144119D01*
X100704329Y-50144119D02*
X100466234Y-50144119D01*
X101418615Y-50096500D02*
X101561472Y-50144119D01*
X101561472Y-50144119D02*
X101799567Y-50144119D01*
X101799567Y-50144119D02*
X101894805Y-50096500D01*
X101894805Y-50096500D02*
X101942424Y-50048880D01*
X101942424Y-50048880D02*
X101990043Y-49953642D01*
X101990043Y-49953642D02*
X101990043Y-49858404D01*
X101990043Y-49858404D02*
X101942424Y-49763166D01*
X101942424Y-49763166D02*
X101894805Y-49715547D01*
X101894805Y-49715547D02*
X101799567Y-49667928D01*
X101799567Y-49667928D02*
X101609091Y-49620309D01*
X101609091Y-49620309D02*
X101513853Y-49572690D01*
X101513853Y-49572690D02*
X101466234Y-49525071D01*
X101466234Y-49525071D02*
X101418615Y-49429833D01*
X101418615Y-49429833D02*
X101418615Y-49334595D01*
X101418615Y-49334595D02*
X101466234Y-49239357D01*
X101466234Y-49239357D02*
X101513853Y-49191738D01*
X101513853Y-49191738D02*
X101609091Y-49144119D01*
X101609091Y-49144119D02*
X101847186Y-49144119D01*
X101847186Y-49144119D02*
X101990043Y-49191738D01*
X102942424Y-50144119D02*
X102370996Y-50144119D01*
X102656710Y-50144119D02*
X102656710Y-49144119D01*
X102656710Y-49144119D02*
X102561472Y-49286976D01*
X102561472Y-49286976D02*
X102466234Y-49382214D01*
X102466234Y-49382214D02*
X102370996Y-49429833D01*
X105869047Y-124231009D02*
X106011904Y-124278628D01*
X106011904Y-124278628D02*
X106059523Y-124326247D01*
X106059523Y-124326247D02*
X106107142Y-124421485D01*
X106107142Y-124421485D02*
X106107142Y-124564342D01*
X106107142Y-124564342D02*
X106059523Y-124659580D01*
X106059523Y-124659580D02*
X106011904Y-124707200D01*
X106011904Y-124707200D02*
X105916666Y-124754819D01*
X105916666Y-124754819D02*
X105535714Y-124754819D01*
X105535714Y-124754819D02*
X105535714Y-123754819D01*
X105535714Y-123754819D02*
X105869047Y-123754819D01*
X105869047Y-123754819D02*
X105964285Y-123802438D01*
X105964285Y-123802438D02*
X106011904Y-123850057D01*
X106011904Y-123850057D02*
X106059523Y-123945295D01*
X106059523Y-123945295D02*
X106059523Y-124040533D01*
X106059523Y-124040533D02*
X106011904Y-124135771D01*
X106011904Y-124135771D02*
X105964285Y-124183390D01*
X105964285Y-124183390D02*
X105869047Y-124231009D01*
X105869047Y-124231009D02*
X105535714Y-124231009D01*
X106440476Y-123754819D02*
X107107142Y-123754819D01*
X107107142Y-123754819D02*
X106440476Y-124754819D01*
X106440476Y-124754819D02*
X107107142Y-124754819D01*
X108011904Y-124754819D02*
X107440476Y-124754819D01*
X107726190Y-124754819D02*
X107726190Y-123754819D01*
X107726190Y-123754819D02*
X107630952Y-123897676D01*
X107630952Y-123897676D02*
X107535714Y-123992914D01*
X107535714Y-123992914D02*
X107440476Y-124040533D01*
X102559048Y-129033866D02*
X103320953Y-129033866D01*
X102940000Y-129414819D02*
X102940000Y-128652914D01*
X124311904Y-135045180D02*
X124311904Y-134235657D01*
X124311904Y-134235657D02*
X124264285Y-134140419D01*
X124264285Y-134140419D02*
X124216666Y-134092800D01*
X124216666Y-134092800D02*
X124121428Y-134045180D01*
X124121428Y-134045180D02*
X123930952Y-134045180D01*
X123930952Y-134045180D02*
X123835714Y-134092800D01*
X123835714Y-134092800D02*
X123788095Y-134140419D01*
X123788095Y-134140419D02*
X123740476Y-134235657D01*
X123740476Y-134235657D02*
X123740476Y-135045180D01*
X123311904Y-134949942D02*
X123264285Y-134997561D01*
X123264285Y-134997561D02*
X123169047Y-135045180D01*
X123169047Y-135045180D02*
X122930952Y-135045180D01*
X122930952Y-135045180D02*
X122835714Y-134997561D01*
X122835714Y-134997561D02*
X122788095Y-134949942D01*
X122788095Y-134949942D02*
X122740476Y-134854704D01*
X122740476Y-134854704D02*
X122740476Y-134759466D01*
X122740476Y-134759466D02*
X122788095Y-134616609D01*
X122788095Y-134616609D02*
X123359523Y-134045180D01*
X123359523Y-134045180D02*
X122740476Y-134045180D01*
X118104819Y-123916666D02*
X117628628Y-124249999D01*
X118104819Y-124488094D02*
X117104819Y-124488094D01*
X117104819Y-124488094D02*
X117104819Y-124107142D01*
X117104819Y-124107142D02*
X117152438Y-124011904D01*
X117152438Y-124011904D02*
X117200057Y-123964285D01*
X117200057Y-123964285D02*
X117295295Y-123916666D01*
X117295295Y-123916666D02*
X117438152Y-123916666D01*
X117438152Y-123916666D02*
X117533390Y-123964285D01*
X117533390Y-123964285D02*
X117581009Y-124011904D01*
X117581009Y-124011904D02*
X117628628Y-124107142D01*
X117628628Y-124107142D02*
X117628628Y-124488094D01*
X117438152Y-123059523D02*
X118104819Y-123059523D01*
X117057200Y-123297618D02*
X117771485Y-123535713D01*
X117771485Y-123535713D02*
X117771485Y-122916666D01*
X110857142Y-60354819D02*
X110523809Y-59878628D01*
X110285714Y-60354819D02*
X110285714Y-59354819D01*
X110285714Y-59354819D02*
X110666666Y-59354819D01*
X110666666Y-59354819D02*
X110761904Y-59402438D01*
X110761904Y-59402438D02*
X110809523Y-59450057D01*
X110809523Y-59450057D02*
X110857142Y-59545295D01*
X110857142Y-59545295D02*
X110857142Y-59688152D01*
X110857142Y-59688152D02*
X110809523Y-59783390D01*
X110809523Y-59783390D02*
X110761904Y-59831009D01*
X110761904Y-59831009D02*
X110666666Y-59878628D01*
X110666666Y-59878628D02*
X110285714Y-59878628D01*
X111809523Y-60354819D02*
X111238095Y-60354819D01*
X111523809Y-60354819D02*
X111523809Y-59354819D01*
X111523809Y-59354819D02*
X111428571Y-59497676D01*
X111428571Y-59497676D02*
X111333333Y-59592914D01*
X111333333Y-59592914D02*
X111238095Y-59640533D01*
X112714285Y-59354819D02*
X112238095Y-59354819D01*
X112238095Y-59354819D02*
X112190476Y-59831009D01*
X112190476Y-59831009D02*
X112238095Y-59783390D01*
X112238095Y-59783390D02*
X112333333Y-59735771D01*
X112333333Y-59735771D02*
X112571428Y-59735771D01*
X112571428Y-59735771D02*
X112666666Y-59783390D01*
X112666666Y-59783390D02*
X112714285Y-59831009D01*
X112714285Y-59831009D02*
X112761904Y-59926247D01*
X112761904Y-59926247D02*
X112761904Y-60164342D01*
X112761904Y-60164342D02*
X112714285Y-60259580D01*
X112714285Y-60259580D02*
X112666666Y-60307200D01*
X112666666Y-60307200D02*
X112571428Y-60354819D01*
X112571428Y-60354819D02*
X112333333Y-60354819D01*
X112333333Y-60354819D02*
X112238095Y-60307200D01*
X112238095Y-60307200D02*
X112190476Y-60259580D01*
X166416666Y-81114819D02*
X166416666Y-81829104D01*
X166416666Y-81829104D02*
X166369047Y-81971961D01*
X166369047Y-81971961D02*
X166273809Y-82067200D01*
X166273809Y-82067200D02*
X166130952Y-82114819D01*
X166130952Y-82114819D02*
X166035714Y-82114819D01*
X166845238Y-81210057D02*
X166892857Y-81162438D01*
X166892857Y-81162438D02*
X166988095Y-81114819D01*
X166988095Y-81114819D02*
X167226190Y-81114819D01*
X167226190Y-81114819D02*
X167321428Y-81162438D01*
X167321428Y-81162438D02*
X167369047Y-81210057D01*
X167369047Y-81210057D02*
X167416666Y-81305295D01*
X167416666Y-81305295D02*
X167416666Y-81400533D01*
X167416666Y-81400533D02*
X167369047Y-81543390D01*
X167369047Y-81543390D02*
X166797619Y-82114819D01*
X166797619Y-82114819D02*
X167416666Y-82114819D01*
X103456666Y-62624819D02*
X103456666Y-63339104D01*
X103456666Y-63339104D02*
X103409047Y-63481961D01*
X103409047Y-63481961D02*
X103313809Y-63577200D01*
X103313809Y-63577200D02*
X103170952Y-63624819D01*
X103170952Y-63624819D02*
X103075714Y-63624819D01*
X104456666Y-63624819D02*
X103885238Y-63624819D01*
X104170952Y-63624819D02*
X104170952Y-62624819D01*
X104170952Y-62624819D02*
X104075714Y-62767676D01*
X104075714Y-62767676D02*
X103980476Y-62862914D01*
X103980476Y-62862914D02*
X103885238Y-62910533D01*
X116154761Y-128350057D02*
X116059523Y-128302438D01*
X116059523Y-128302438D02*
X115964285Y-128207200D01*
X115964285Y-128207200D02*
X115821428Y-128064342D01*
X115821428Y-128064342D02*
X115726190Y-128016723D01*
X115726190Y-128016723D02*
X115630952Y-128016723D01*
X115678571Y-128254819D02*
X115583333Y-128207200D01*
X115583333Y-128207200D02*
X115488095Y-128111961D01*
X115488095Y-128111961D02*
X115440476Y-127921485D01*
X115440476Y-127921485D02*
X115440476Y-127588152D01*
X115440476Y-127588152D02*
X115488095Y-127397676D01*
X115488095Y-127397676D02*
X115583333Y-127302438D01*
X115583333Y-127302438D02*
X115678571Y-127254819D01*
X115678571Y-127254819D02*
X115869047Y-127254819D01*
X115869047Y-127254819D02*
X115964285Y-127302438D01*
X115964285Y-127302438D02*
X116059523Y-127397676D01*
X116059523Y-127397676D02*
X116107142Y-127588152D01*
X116107142Y-127588152D02*
X116107142Y-127921485D01*
X116107142Y-127921485D02*
X116059523Y-128111961D01*
X116059523Y-128111961D02*
X115964285Y-128207200D01*
X115964285Y-128207200D02*
X115869047Y-128254819D01*
X115869047Y-128254819D02*
X115678571Y-128254819D01*
X117059523Y-128254819D02*
X116488095Y-128254819D01*
X116773809Y-128254819D02*
X116773809Y-127254819D01*
X116773809Y-127254819D02*
X116678571Y-127397676D01*
X116678571Y-127397676D02*
X116583333Y-127492914D01*
X116583333Y-127492914D02*
X116488095Y-127540533D01*
X195566976Y-145150657D02*
X195566976Y-145960493D01*
X195566976Y-145960493D02*
X195614613Y-146055768D01*
X195614613Y-146055768D02*
X195662251Y-146103406D01*
X195662251Y-146103406D02*
X195757525Y-146151043D01*
X195757525Y-146151043D02*
X195948075Y-146151043D01*
X195948075Y-146151043D02*
X196043350Y-146103406D01*
X196043350Y-146103406D02*
X196090987Y-146055768D01*
X196090987Y-146055768D02*
X196138625Y-145960493D01*
X196138625Y-145960493D02*
X196138625Y-145150657D01*
X197139010Y-146151043D02*
X196567361Y-146151043D01*
X196853186Y-146151043D02*
X196853186Y-145150657D01*
X196853186Y-145150657D02*
X196757911Y-145293569D01*
X196757911Y-145293569D02*
X196662636Y-145388844D01*
X196662636Y-145388844D02*
X196567361Y-145436482D01*
X154674761Y-52240057D02*
X154579523Y-52192438D01*
X154579523Y-52192438D02*
X154484285Y-52097200D01*
X154484285Y-52097200D02*
X154341428Y-51954342D01*
X154341428Y-51954342D02*
X154246190Y-51906723D01*
X154246190Y-51906723D02*
X154150952Y-51906723D01*
X154198571Y-52144819D02*
X154103333Y-52097200D01*
X154103333Y-52097200D02*
X154008095Y-52001961D01*
X154008095Y-52001961D02*
X153960476Y-51811485D01*
X153960476Y-51811485D02*
X153960476Y-51478152D01*
X153960476Y-51478152D02*
X154008095Y-51287676D01*
X154008095Y-51287676D02*
X154103333Y-51192438D01*
X154103333Y-51192438D02*
X154198571Y-51144819D01*
X154198571Y-51144819D02*
X154389047Y-51144819D01*
X154389047Y-51144819D02*
X154484285Y-51192438D01*
X154484285Y-51192438D02*
X154579523Y-51287676D01*
X154579523Y-51287676D02*
X154627142Y-51478152D01*
X154627142Y-51478152D02*
X154627142Y-51811485D01*
X154627142Y-51811485D02*
X154579523Y-52001961D01*
X154579523Y-52001961D02*
X154484285Y-52097200D01*
X154484285Y-52097200D02*
X154389047Y-52144819D01*
X154389047Y-52144819D02*
X154198571Y-52144819D01*
X155008095Y-51240057D02*
X155055714Y-51192438D01*
X155055714Y-51192438D02*
X155150952Y-51144819D01*
X155150952Y-51144819D02*
X155389047Y-51144819D01*
X155389047Y-51144819D02*
X155484285Y-51192438D01*
X155484285Y-51192438D02*
X155531904Y-51240057D01*
X155531904Y-51240057D02*
X155579523Y-51335295D01*
X155579523Y-51335295D02*
X155579523Y-51430533D01*
X155579523Y-51430533D02*
X155531904Y-51573390D01*
X155531904Y-51573390D02*
X154960476Y-52144819D01*
X154960476Y-52144819D02*
X155579523Y-52144819D01*
X109104819Y-59392857D02*
X108628628Y-59726190D01*
X109104819Y-59964285D02*
X108104819Y-59964285D01*
X108104819Y-59964285D02*
X108104819Y-59583333D01*
X108104819Y-59583333D02*
X108152438Y-59488095D01*
X108152438Y-59488095D02*
X108200057Y-59440476D01*
X108200057Y-59440476D02*
X108295295Y-59392857D01*
X108295295Y-59392857D02*
X108438152Y-59392857D01*
X108438152Y-59392857D02*
X108533390Y-59440476D01*
X108533390Y-59440476D02*
X108581009Y-59488095D01*
X108581009Y-59488095D02*
X108628628Y-59583333D01*
X108628628Y-59583333D02*
X108628628Y-59964285D01*
X109104819Y-58440476D02*
X109104819Y-59011904D01*
X109104819Y-58726190D02*
X108104819Y-58726190D01*
X108104819Y-58726190D02*
X108247676Y-58821428D01*
X108247676Y-58821428D02*
X108342914Y-58916666D01*
X108342914Y-58916666D02*
X108390533Y-59011904D01*
X108104819Y-57583333D02*
X108104819Y-57773809D01*
X108104819Y-57773809D02*
X108152438Y-57869047D01*
X108152438Y-57869047D02*
X108200057Y-57916666D01*
X108200057Y-57916666D02*
X108342914Y-58011904D01*
X108342914Y-58011904D02*
X108533390Y-58059523D01*
X108533390Y-58059523D02*
X108914342Y-58059523D01*
X108914342Y-58059523D02*
X109009580Y-58011904D01*
X109009580Y-58011904D02*
X109057200Y-57964285D01*
X109057200Y-57964285D02*
X109104819Y-57869047D01*
X109104819Y-57869047D02*
X109104819Y-57678571D01*
X109104819Y-57678571D02*
X109057200Y-57583333D01*
X109057200Y-57583333D02*
X109009580Y-57535714D01*
X109009580Y-57535714D02*
X108914342Y-57488095D01*
X108914342Y-57488095D02*
X108676247Y-57488095D01*
X108676247Y-57488095D02*
X108581009Y-57535714D01*
X108581009Y-57535714D02*
X108533390Y-57583333D01*
X108533390Y-57583333D02*
X108485771Y-57678571D01*
X108485771Y-57678571D02*
X108485771Y-57869047D01*
X108485771Y-57869047D02*
X108533390Y-57964285D01*
X108533390Y-57964285D02*
X108581009Y-58011904D01*
X108581009Y-58011904D02*
X108676247Y-58059523D01*
X190583333Y-115304819D02*
X190250000Y-114828628D01*
X190011905Y-115304819D02*
X190011905Y-114304819D01*
X190011905Y-114304819D02*
X190392857Y-114304819D01*
X190392857Y-114304819D02*
X190488095Y-114352438D01*
X190488095Y-114352438D02*
X190535714Y-114400057D01*
X190535714Y-114400057D02*
X190583333Y-114495295D01*
X190583333Y-114495295D02*
X190583333Y-114638152D01*
X190583333Y-114638152D02*
X190535714Y-114733390D01*
X190535714Y-114733390D02*
X190488095Y-114781009D01*
X190488095Y-114781009D02*
X190392857Y-114828628D01*
X190392857Y-114828628D02*
X190011905Y-114828628D01*
X190916667Y-114304819D02*
X191583333Y-114304819D01*
X191583333Y-114304819D02*
X191154762Y-115304819D01*
X148944642Y-55604819D02*
X148611309Y-55128628D01*
X148373214Y-55604819D02*
X148373214Y-54604819D01*
X148373214Y-54604819D02*
X148754166Y-54604819D01*
X148754166Y-54604819D02*
X148849404Y-54652438D01*
X148849404Y-54652438D02*
X148897023Y-54700057D01*
X148897023Y-54700057D02*
X148944642Y-54795295D01*
X148944642Y-54795295D02*
X148944642Y-54938152D01*
X148944642Y-54938152D02*
X148897023Y-55033390D01*
X148897023Y-55033390D02*
X148849404Y-55081009D01*
X148849404Y-55081009D02*
X148754166Y-55128628D01*
X148754166Y-55128628D02*
X148373214Y-55128628D01*
X149897023Y-55604819D02*
X149325595Y-55604819D01*
X149611309Y-55604819D02*
X149611309Y-54604819D01*
X149611309Y-54604819D02*
X149516071Y-54747676D01*
X149516071Y-54747676D02*
X149420833Y-54842914D01*
X149420833Y-54842914D02*
X149325595Y-54890533D01*
X150754166Y-54938152D02*
X150754166Y-55604819D01*
X150516071Y-54557200D02*
X150277976Y-55271485D01*
X150277976Y-55271485D02*
X150897023Y-55271485D01*
X190583333Y-120604819D02*
X190250000Y-120128628D01*
X190011905Y-120604819D02*
X190011905Y-119604819D01*
X190011905Y-119604819D02*
X190392857Y-119604819D01*
X190392857Y-119604819D02*
X190488095Y-119652438D01*
X190488095Y-119652438D02*
X190535714Y-119700057D01*
X190535714Y-119700057D02*
X190583333Y-119795295D01*
X190583333Y-119795295D02*
X190583333Y-119938152D01*
X190583333Y-119938152D02*
X190535714Y-120033390D01*
X190535714Y-120033390D02*
X190488095Y-120081009D01*
X190488095Y-120081009D02*
X190392857Y-120128628D01*
X190392857Y-120128628D02*
X190011905Y-120128628D01*
X191154762Y-120033390D02*
X191059524Y-119985771D01*
X191059524Y-119985771D02*
X191011905Y-119938152D01*
X191011905Y-119938152D02*
X190964286Y-119842914D01*
X190964286Y-119842914D02*
X190964286Y-119795295D01*
X190964286Y-119795295D02*
X191011905Y-119700057D01*
X191011905Y-119700057D02*
X191059524Y-119652438D01*
X191059524Y-119652438D02*
X191154762Y-119604819D01*
X191154762Y-119604819D02*
X191345238Y-119604819D01*
X191345238Y-119604819D02*
X191440476Y-119652438D01*
X191440476Y-119652438D02*
X191488095Y-119700057D01*
X191488095Y-119700057D02*
X191535714Y-119795295D01*
X191535714Y-119795295D02*
X191535714Y-119842914D01*
X191535714Y-119842914D02*
X191488095Y-119938152D01*
X191488095Y-119938152D02*
X191440476Y-119985771D01*
X191440476Y-119985771D02*
X191345238Y-120033390D01*
X191345238Y-120033390D02*
X191154762Y-120033390D01*
X191154762Y-120033390D02*
X191059524Y-120081009D01*
X191059524Y-120081009D02*
X191011905Y-120128628D01*
X191011905Y-120128628D02*
X190964286Y-120223866D01*
X190964286Y-120223866D02*
X190964286Y-120414342D01*
X190964286Y-120414342D02*
X191011905Y-120509580D01*
X191011905Y-120509580D02*
X191059524Y-120557200D01*
X191059524Y-120557200D02*
X191154762Y-120604819D01*
X191154762Y-120604819D02*
X191345238Y-120604819D01*
X191345238Y-120604819D02*
X191440476Y-120557200D01*
X191440476Y-120557200D02*
X191488095Y-120509580D01*
X191488095Y-120509580D02*
X191535714Y-120414342D01*
X191535714Y-120414342D02*
X191535714Y-120223866D01*
X191535714Y-120223866D02*
X191488095Y-120128628D01*
X191488095Y-120128628D02*
X191440476Y-120081009D01*
X191440476Y-120081009D02*
X191345238Y-120033390D01*
X122109580Y-102666666D02*
X122157200Y-102714285D01*
X122157200Y-102714285D02*
X122204819Y-102857142D01*
X122204819Y-102857142D02*
X122204819Y-102952380D01*
X122204819Y-102952380D02*
X122157200Y-103095237D01*
X122157200Y-103095237D02*
X122061961Y-103190475D01*
X122061961Y-103190475D02*
X121966723Y-103238094D01*
X121966723Y-103238094D02*
X121776247Y-103285713D01*
X121776247Y-103285713D02*
X121633390Y-103285713D01*
X121633390Y-103285713D02*
X121442914Y-103238094D01*
X121442914Y-103238094D02*
X121347676Y-103190475D01*
X121347676Y-103190475D02*
X121252438Y-103095237D01*
X121252438Y-103095237D02*
X121204819Y-102952380D01*
X121204819Y-102952380D02*
X121204819Y-102857142D01*
X121204819Y-102857142D02*
X121252438Y-102714285D01*
X121252438Y-102714285D02*
X121300057Y-102666666D01*
X121204819Y-102333332D02*
X121204819Y-101714285D01*
X121204819Y-101714285D02*
X121585771Y-102047618D01*
X121585771Y-102047618D02*
X121585771Y-101904761D01*
X121585771Y-101904761D02*
X121633390Y-101809523D01*
X121633390Y-101809523D02*
X121681009Y-101761904D01*
X121681009Y-101761904D02*
X121776247Y-101714285D01*
X121776247Y-101714285D02*
X122014342Y-101714285D01*
X122014342Y-101714285D02*
X122109580Y-101761904D01*
X122109580Y-101761904D02*
X122157200Y-101809523D01*
X122157200Y-101809523D02*
X122204819Y-101904761D01*
X122204819Y-101904761D02*
X122204819Y-102190475D01*
X122204819Y-102190475D02*
X122157200Y-102285713D01*
X122157200Y-102285713D02*
X122109580Y-102333332D01*
X153554819Y-61392857D02*
X153078628Y-61726190D01*
X153554819Y-61964285D02*
X152554819Y-61964285D01*
X152554819Y-61964285D02*
X152554819Y-61583333D01*
X152554819Y-61583333D02*
X152602438Y-61488095D01*
X152602438Y-61488095D02*
X152650057Y-61440476D01*
X152650057Y-61440476D02*
X152745295Y-61392857D01*
X152745295Y-61392857D02*
X152888152Y-61392857D01*
X152888152Y-61392857D02*
X152983390Y-61440476D01*
X152983390Y-61440476D02*
X153031009Y-61488095D01*
X153031009Y-61488095D02*
X153078628Y-61583333D01*
X153078628Y-61583333D02*
X153078628Y-61964285D01*
X153554819Y-60440476D02*
X153554819Y-61011904D01*
X153554819Y-60726190D02*
X152554819Y-60726190D01*
X152554819Y-60726190D02*
X152697676Y-60821428D01*
X152697676Y-60821428D02*
X152792914Y-60916666D01*
X152792914Y-60916666D02*
X152840533Y-61011904D01*
X152554819Y-60107142D02*
X152554819Y-59488095D01*
X152554819Y-59488095D02*
X152935771Y-59821428D01*
X152935771Y-59821428D02*
X152935771Y-59678571D01*
X152935771Y-59678571D02*
X152983390Y-59583333D01*
X152983390Y-59583333D02*
X153031009Y-59535714D01*
X153031009Y-59535714D02*
X153126247Y-59488095D01*
X153126247Y-59488095D02*
X153364342Y-59488095D01*
X153364342Y-59488095D02*
X153459580Y-59535714D01*
X153459580Y-59535714D02*
X153507200Y-59583333D01*
X153507200Y-59583333D02*
X153554819Y-59678571D01*
X153554819Y-59678571D02*
X153554819Y-59964285D01*
X153554819Y-59964285D02*
X153507200Y-60059523D01*
X153507200Y-60059523D02*
X153459580Y-60107142D01*
X162083333Y-76354819D02*
X161750000Y-75878628D01*
X161511905Y-76354819D02*
X161511905Y-75354819D01*
X161511905Y-75354819D02*
X161892857Y-75354819D01*
X161892857Y-75354819D02*
X161988095Y-75402438D01*
X161988095Y-75402438D02*
X162035714Y-75450057D01*
X162035714Y-75450057D02*
X162083333Y-75545295D01*
X162083333Y-75545295D02*
X162083333Y-75688152D01*
X162083333Y-75688152D02*
X162035714Y-75783390D01*
X162035714Y-75783390D02*
X161988095Y-75831009D01*
X161988095Y-75831009D02*
X161892857Y-75878628D01*
X161892857Y-75878628D02*
X161511905Y-75878628D01*
X162559524Y-76354819D02*
X162750000Y-76354819D01*
X162750000Y-76354819D02*
X162845238Y-76307200D01*
X162845238Y-76307200D02*
X162892857Y-76259580D01*
X162892857Y-76259580D02*
X162988095Y-76116723D01*
X162988095Y-76116723D02*
X163035714Y-75926247D01*
X163035714Y-75926247D02*
X163035714Y-75545295D01*
X163035714Y-75545295D02*
X162988095Y-75450057D01*
X162988095Y-75450057D02*
X162940476Y-75402438D01*
X162940476Y-75402438D02*
X162845238Y-75354819D01*
X162845238Y-75354819D02*
X162654762Y-75354819D01*
X162654762Y-75354819D02*
X162559524Y-75402438D01*
X162559524Y-75402438D02*
X162511905Y-75450057D01*
X162511905Y-75450057D02*
X162464286Y-75545295D01*
X162464286Y-75545295D02*
X162464286Y-75783390D01*
X162464286Y-75783390D02*
X162511905Y-75878628D01*
X162511905Y-75878628D02*
X162559524Y-75926247D01*
X162559524Y-75926247D02*
X162654762Y-75973866D01*
X162654762Y-75973866D02*
X162845238Y-75973866D01*
X162845238Y-75973866D02*
X162940476Y-75926247D01*
X162940476Y-75926247D02*
X162988095Y-75878628D01*
X162988095Y-75878628D02*
X163035714Y-75783390D01*
X186607142Y-119554819D02*
X186273809Y-119078628D01*
X186035714Y-119554819D02*
X186035714Y-118554819D01*
X186035714Y-118554819D02*
X186416666Y-118554819D01*
X186416666Y-118554819D02*
X186511904Y-118602438D01*
X186511904Y-118602438D02*
X186559523Y-118650057D01*
X186559523Y-118650057D02*
X186607142Y-118745295D01*
X186607142Y-118745295D02*
X186607142Y-118888152D01*
X186607142Y-118888152D02*
X186559523Y-118983390D01*
X186559523Y-118983390D02*
X186511904Y-119031009D01*
X186511904Y-119031009D02*
X186416666Y-119078628D01*
X186416666Y-119078628D02*
X186035714Y-119078628D01*
X187559523Y-119554819D02*
X186988095Y-119554819D01*
X187273809Y-119554819D02*
X187273809Y-118554819D01*
X187273809Y-118554819D02*
X187178571Y-118697676D01*
X187178571Y-118697676D02*
X187083333Y-118792914D01*
X187083333Y-118792914D02*
X186988095Y-118840533D01*
X188511904Y-119554819D02*
X187940476Y-119554819D01*
X188226190Y-119554819D02*
X188226190Y-118554819D01*
X188226190Y-118554819D02*
X188130952Y-118697676D01*
X188130952Y-118697676D02*
X188035714Y-118792914D01*
X188035714Y-118792914D02*
X187940476Y-118840533D01*
X181756905Y-51244819D02*
X181756905Y-50244819D01*
X181756905Y-50244819D02*
X181995000Y-50244819D01*
X181995000Y-50244819D02*
X182137857Y-50292438D01*
X182137857Y-50292438D02*
X182233095Y-50387676D01*
X182233095Y-50387676D02*
X182280714Y-50482914D01*
X182280714Y-50482914D02*
X182328333Y-50673390D01*
X182328333Y-50673390D02*
X182328333Y-50816247D01*
X182328333Y-50816247D02*
X182280714Y-51006723D01*
X182280714Y-51006723D02*
X182233095Y-51101961D01*
X182233095Y-51101961D02*
X182137857Y-51197200D01*
X182137857Y-51197200D02*
X181995000Y-51244819D01*
X181995000Y-51244819D02*
X181756905Y-51244819D01*
X182661667Y-50244819D02*
X183280714Y-50244819D01*
X183280714Y-50244819D02*
X182947381Y-50625771D01*
X182947381Y-50625771D02*
X183090238Y-50625771D01*
X183090238Y-50625771D02*
X183185476Y-50673390D01*
X183185476Y-50673390D02*
X183233095Y-50721009D01*
X183233095Y-50721009D02*
X183280714Y-50816247D01*
X183280714Y-50816247D02*
X183280714Y-51054342D01*
X183280714Y-51054342D02*
X183233095Y-51149580D01*
X183233095Y-51149580D02*
X183185476Y-51197200D01*
X183185476Y-51197200D02*
X183090238Y-51244819D01*
X183090238Y-51244819D02*
X182804524Y-51244819D01*
X182804524Y-51244819D02*
X182709286Y-51197200D01*
X182709286Y-51197200D02*
X182661667Y-51149580D01*
X94214819Y-104253333D02*
X94929104Y-104253333D01*
X94929104Y-104253333D02*
X95071961Y-104300952D01*
X95071961Y-104300952D02*
X95167200Y-104396190D01*
X95167200Y-104396190D02*
X95214819Y-104539047D01*
X95214819Y-104539047D02*
X95214819Y-104634285D01*
X94214819Y-103300952D02*
X94214819Y-103777142D01*
X94214819Y-103777142D02*
X94691009Y-103824761D01*
X94691009Y-103824761D02*
X94643390Y-103777142D01*
X94643390Y-103777142D02*
X94595771Y-103681904D01*
X94595771Y-103681904D02*
X94595771Y-103443809D01*
X94595771Y-103443809D02*
X94643390Y-103348571D01*
X94643390Y-103348571D02*
X94691009Y-103300952D01*
X94691009Y-103300952D02*
X94786247Y-103253333D01*
X94786247Y-103253333D02*
X95024342Y-103253333D01*
X95024342Y-103253333D02*
X95119580Y-103300952D01*
X95119580Y-103300952D02*
X95167200Y-103348571D01*
X95167200Y-103348571D02*
X95214819Y-103443809D01*
X95214819Y-103443809D02*
X95214819Y-103681904D01*
X95214819Y-103681904D02*
X95167200Y-103777142D01*
X95167200Y-103777142D02*
X95119580Y-103824761D01*
X113359580Y-102666666D02*
X113407200Y-102714285D01*
X113407200Y-102714285D02*
X113454819Y-102857142D01*
X113454819Y-102857142D02*
X113454819Y-102952380D01*
X113454819Y-102952380D02*
X113407200Y-103095237D01*
X113407200Y-103095237D02*
X113311961Y-103190475D01*
X113311961Y-103190475D02*
X113216723Y-103238094D01*
X113216723Y-103238094D02*
X113026247Y-103285713D01*
X113026247Y-103285713D02*
X112883390Y-103285713D01*
X112883390Y-103285713D02*
X112692914Y-103238094D01*
X112692914Y-103238094D02*
X112597676Y-103190475D01*
X112597676Y-103190475D02*
X112502438Y-103095237D01*
X112502438Y-103095237D02*
X112454819Y-102952380D01*
X112454819Y-102952380D02*
X112454819Y-102857142D01*
X112454819Y-102857142D02*
X112502438Y-102714285D01*
X112502438Y-102714285D02*
X112550057Y-102666666D01*
X112788152Y-101809523D02*
X113454819Y-101809523D01*
X112407200Y-102047618D02*
X113121485Y-102285713D01*
X113121485Y-102285713D02*
X113121485Y-101666666D01*
X159694819Y-92833333D02*
X160409104Y-92833333D01*
X160409104Y-92833333D02*
X160551961Y-92880952D01*
X160551961Y-92880952D02*
X160647200Y-92976190D01*
X160647200Y-92976190D02*
X160694819Y-93119047D01*
X160694819Y-93119047D02*
X160694819Y-93214285D01*
X159694819Y-92452380D02*
X159694819Y-91833333D01*
X159694819Y-91833333D02*
X160075771Y-92166666D01*
X160075771Y-92166666D02*
X160075771Y-92023809D01*
X160075771Y-92023809D02*
X160123390Y-91928571D01*
X160123390Y-91928571D02*
X160171009Y-91880952D01*
X160171009Y-91880952D02*
X160266247Y-91833333D01*
X160266247Y-91833333D02*
X160504342Y-91833333D01*
X160504342Y-91833333D02*
X160599580Y-91880952D01*
X160599580Y-91880952D02*
X160647200Y-91928571D01*
X160647200Y-91928571D02*
X160694819Y-92023809D01*
X160694819Y-92023809D02*
X160694819Y-92309523D01*
X160694819Y-92309523D02*
X160647200Y-92404761D01*
X160647200Y-92404761D02*
X160599580Y-92452380D01*
X157607142Y-73054819D02*
X157273809Y-72578628D01*
X157035714Y-73054819D02*
X157035714Y-72054819D01*
X157035714Y-72054819D02*
X157416666Y-72054819D01*
X157416666Y-72054819D02*
X157511904Y-72102438D01*
X157511904Y-72102438D02*
X157559523Y-72150057D01*
X157559523Y-72150057D02*
X157607142Y-72245295D01*
X157607142Y-72245295D02*
X157607142Y-72388152D01*
X157607142Y-72388152D02*
X157559523Y-72483390D01*
X157559523Y-72483390D02*
X157511904Y-72531009D01*
X157511904Y-72531009D02*
X157416666Y-72578628D01*
X157416666Y-72578628D02*
X157035714Y-72578628D01*
X158559523Y-73054819D02*
X157988095Y-73054819D01*
X158273809Y-73054819D02*
X158273809Y-72054819D01*
X158273809Y-72054819D02*
X158178571Y-72197676D01*
X158178571Y-72197676D02*
X158083333Y-72292914D01*
X158083333Y-72292914D02*
X157988095Y-72340533D01*
X159178571Y-72054819D02*
X159273809Y-72054819D01*
X159273809Y-72054819D02*
X159369047Y-72102438D01*
X159369047Y-72102438D02*
X159416666Y-72150057D01*
X159416666Y-72150057D02*
X159464285Y-72245295D01*
X159464285Y-72245295D02*
X159511904Y-72435771D01*
X159511904Y-72435771D02*
X159511904Y-72673866D01*
X159511904Y-72673866D02*
X159464285Y-72864342D01*
X159464285Y-72864342D02*
X159416666Y-72959580D01*
X159416666Y-72959580D02*
X159369047Y-73007200D01*
X159369047Y-73007200D02*
X159273809Y-73054819D01*
X159273809Y-73054819D02*
X159178571Y-73054819D01*
X159178571Y-73054819D02*
X159083333Y-73007200D01*
X159083333Y-73007200D02*
X159035714Y-72959580D01*
X159035714Y-72959580D02*
X158988095Y-72864342D01*
X158988095Y-72864342D02*
X158940476Y-72673866D01*
X158940476Y-72673866D02*
X158940476Y-72435771D01*
X158940476Y-72435771D02*
X158988095Y-72245295D01*
X158988095Y-72245295D02*
X159035714Y-72150057D01*
X159035714Y-72150057D02*
X159083333Y-72102438D01*
X159083333Y-72102438D02*
X159178571Y-72054819D01*
X157333333Y-65304819D02*
X157000000Y-64828628D01*
X156761905Y-65304819D02*
X156761905Y-64304819D01*
X156761905Y-64304819D02*
X157142857Y-64304819D01*
X157142857Y-64304819D02*
X157238095Y-64352438D01*
X157238095Y-64352438D02*
X157285714Y-64400057D01*
X157285714Y-64400057D02*
X157333333Y-64495295D01*
X157333333Y-64495295D02*
X157333333Y-64638152D01*
X157333333Y-64638152D02*
X157285714Y-64733390D01*
X157285714Y-64733390D02*
X157238095Y-64781009D01*
X157238095Y-64781009D02*
X157142857Y-64828628D01*
X157142857Y-64828628D02*
X156761905Y-64828628D01*
X158190476Y-64304819D02*
X158000000Y-64304819D01*
X158000000Y-64304819D02*
X157904762Y-64352438D01*
X157904762Y-64352438D02*
X157857143Y-64400057D01*
X157857143Y-64400057D02*
X157761905Y-64542914D01*
X157761905Y-64542914D02*
X157714286Y-64733390D01*
X157714286Y-64733390D02*
X157714286Y-65114342D01*
X157714286Y-65114342D02*
X157761905Y-65209580D01*
X157761905Y-65209580D02*
X157809524Y-65257200D01*
X157809524Y-65257200D02*
X157904762Y-65304819D01*
X157904762Y-65304819D02*
X158095238Y-65304819D01*
X158095238Y-65304819D02*
X158190476Y-65257200D01*
X158190476Y-65257200D02*
X158238095Y-65209580D01*
X158238095Y-65209580D02*
X158285714Y-65114342D01*
X158285714Y-65114342D02*
X158285714Y-64876247D01*
X158285714Y-64876247D02*
X158238095Y-64781009D01*
X158238095Y-64781009D02*
X158190476Y-64733390D01*
X158190476Y-64733390D02*
X158095238Y-64685771D01*
X158095238Y-64685771D02*
X157904762Y-64685771D01*
X157904762Y-64685771D02*
X157809524Y-64733390D01*
X157809524Y-64733390D02*
X157761905Y-64781009D01*
X157761905Y-64781009D02*
X157714286Y-64876247D01*
X186444642Y-124854819D02*
X186111309Y-124378628D01*
X185873214Y-124854819D02*
X185873214Y-123854819D01*
X185873214Y-123854819D02*
X186254166Y-123854819D01*
X186254166Y-123854819D02*
X186349404Y-123902438D01*
X186349404Y-123902438D02*
X186397023Y-123950057D01*
X186397023Y-123950057D02*
X186444642Y-124045295D01*
X186444642Y-124045295D02*
X186444642Y-124188152D01*
X186444642Y-124188152D02*
X186397023Y-124283390D01*
X186397023Y-124283390D02*
X186349404Y-124331009D01*
X186349404Y-124331009D02*
X186254166Y-124378628D01*
X186254166Y-124378628D02*
X185873214Y-124378628D01*
X187397023Y-124854819D02*
X186825595Y-124854819D01*
X187111309Y-124854819D02*
X187111309Y-123854819D01*
X187111309Y-123854819D02*
X187016071Y-123997676D01*
X187016071Y-123997676D02*
X186920833Y-124092914D01*
X186920833Y-124092914D02*
X186825595Y-124140533D01*
X187777976Y-123950057D02*
X187825595Y-123902438D01*
X187825595Y-123902438D02*
X187920833Y-123854819D01*
X187920833Y-123854819D02*
X188158928Y-123854819D01*
X188158928Y-123854819D02*
X188254166Y-123902438D01*
X188254166Y-123902438D02*
X188301785Y-123950057D01*
X188301785Y-123950057D02*
X188349404Y-124045295D01*
X188349404Y-124045295D02*
X188349404Y-124140533D01*
X188349404Y-124140533D02*
X188301785Y-124283390D01*
X188301785Y-124283390D02*
X187730357Y-124854819D01*
X187730357Y-124854819D02*
X188349404Y-124854819D01*
D11*
%TO.C,D7*%
X163935000Y-71710000D02*
X163935000Y-69790000D01*
X163935000Y-69790000D02*
X161250000Y-69790000D01*
X161250000Y-71710000D02*
X163935000Y-71710000D01*
%TO.C,D6*%
X159935000Y-77460000D02*
X159935000Y-75540000D01*
X159935000Y-75540000D02*
X157250000Y-75540000D01*
X157250000Y-77460000D02*
X159935000Y-77460000D01*
%TO.C,D5*%
X163435000Y-63960000D02*
X163435000Y-62040000D01*
X163435000Y-62040000D02*
X160750000Y-62040000D01*
X160750000Y-63960000D02*
X163435000Y-63960000D01*
%TO.C,D4*%
X159185000Y-69710000D02*
X159185000Y-67790000D01*
X159185000Y-67790000D02*
X156500000Y-67790000D01*
X156500000Y-69710000D02*
X159185000Y-69710000D01*
%TO.C,D2*%
X118790000Y-94250000D02*
X118790000Y-96935000D01*
X120710000Y-96935000D02*
X120710000Y-94250000D01*
X118790000Y-96935000D02*
X120710000Y-96935000D01*
%TO.C,D1*%
X114540000Y-96997500D02*
X116460000Y-96997500D01*
X116460000Y-96997500D02*
X116460000Y-94312500D01*
X114540000Y-94312500D02*
X114540000Y-96997500D01*
%TO.C,R3*%
X183515000Y-58477064D02*
X183515000Y-58022936D01*
X184985000Y-58477064D02*
X184985000Y-58022936D01*
%TO.C,R5*%
X161977064Y-67235000D02*
X161522936Y-67235000D01*
X161977064Y-65765000D02*
X161522936Y-65765000D01*
%TO.C,DS1*%
X171701560Y-75998620D02*
G75*
G02*
X171201180Y-76499040I-500440J20D01*
G01*
X171200520Y-61499300D02*
G75*
G02*
X171700520Y-61999300I0J-500000D01*
G01*
X107701180Y-76499000D02*
G75*
G02*
X107200800Y-75998620I0J500380D01*
G01*
X107200800Y-61998140D02*
G75*
G02*
X107701180Y-61497760I500380J0D01*
G01*
X179640520Y-87139300D02*
X179640520Y-50859300D01*
X179640520Y-50859300D02*
X100160520Y-50859300D01*
X175500520Y-81499300D02*
X102500520Y-81499300D01*
X175500520Y-56499300D02*
X175500520Y-81499300D01*
X171700520Y-61999300D02*
X171700520Y-75999300D01*
X171201180Y-76499300D02*
X107700520Y-76499300D01*
X107700520Y-61499300D02*
X171200520Y-61499300D01*
X107200800Y-75998620D02*
X107200800Y-61999300D01*
X106000520Y-50499300D02*
X109000520Y-50499300D01*
X102500520Y-81499300D02*
X102500520Y-56499300D01*
X102500520Y-56499300D02*
X175500520Y-56499300D01*
X99370520Y-50859300D02*
X100160520Y-50859300D01*
X99360520Y-87139300D02*
X179640520Y-87139300D01*
X99360520Y-50859300D02*
X99360520Y-87139300D01*
%TO.C,BZ1*%
X112850000Y-131500000D02*
G75*
G02*
X100650000Y-131500000I-6100000J0D01*
G01*
X100650000Y-131500000D02*
G75*
G02*
X112850000Y-131500000I6100000J0D01*
G01*
%TO.C,U2*%
X124168034Y-131000000D02*
G75*
G02*
X121931966Y-131000000I-1118034J0D01*
G01*
X121931966Y-131000000D02*
G75*
G02*
X124168034Y-131000000I1118034J0D01*
G01*
X124550000Y-132500000D02*
X121550000Y-132500000D01*
X121550000Y-129500000D01*
X124550000Y-129500000D01*
X124550000Y-132500000D01*
X125350000Y-117200000D02*
X125350000Y-133000000D01*
X125350000Y-117200000D02*
X125350000Y-110000000D01*
X125350000Y-110000000D02*
X123550000Y-110000000D01*
X123550000Y-133000000D02*
X125350000Y-133000000D01*
X123550000Y-133000000D02*
X103550000Y-133000000D01*
X123550000Y-110000000D02*
X105550000Y-110000000D01*
X105550000Y-110000000D02*
X100150000Y-110000000D01*
X103550000Y-133000000D02*
X100550000Y-133000000D01*
X100150000Y-133000000D02*
X100550000Y-133000000D01*
X100150000Y-110000000D02*
X100150000Y-133000000D01*
%TO.C,R4*%
X116735000Y-123522936D02*
X116735000Y-123977064D01*
X115265000Y-123522936D02*
X115265000Y-123977064D01*
%TO.C,R15*%
X111727064Y-58985000D02*
X111272936Y-58985000D01*
X111727064Y-57515000D02*
X111272936Y-57515000D01*
%TO.C,J2*%
X168080000Y-80660000D02*
X166750000Y-80660000D01*
X168080000Y-79330000D02*
X168080000Y-80660000D01*
X165420000Y-78060000D02*
X165420000Y-60220000D01*
X168080000Y-78060000D02*
X165420000Y-78060000D01*
X168080000Y-78060000D02*
X168080000Y-60220000D01*
X168080000Y-60220000D02*
X165420000Y-60220000D01*
%TO.C,CFG1*%
X193690000Y-56560000D02*
X193690000Y-55500000D01*
X194750000Y-56560000D02*
X193690000Y-56560000D01*
X195750000Y-56560000D02*
X197810000Y-56560000D01*
X195750000Y-56560000D02*
X195750000Y-54440000D01*
X197810000Y-56560000D02*
X197810000Y-54440000D01*
X195750000Y-54440000D02*
X197810000Y-54440000D01*
%TO.C,J1*%
X102580000Y-64440000D02*
X102580000Y-72120000D01*
X99920000Y-72120000D02*
X102580000Y-72120000D01*
X99920000Y-64440000D02*
X102580000Y-64440000D01*
X99920000Y-64440000D02*
X99920000Y-72120000D01*
X99920000Y-63170000D02*
X99920000Y-61840000D01*
X99920000Y-61840000D02*
X101250000Y-61840000D01*
%TO.C,Q1*%
X114411522Y-133198478D02*
G75*
G02*
X116250000Y-128759999I1838478J1838478D01*
G01*
X116250000Y-128760000D02*
G75*
G02*
X118088478Y-133198478I0J-2600000D01*
G01*
X114450000Y-133210000D02*
X118050000Y-133210000D01*
D12*
%TO.C,U1*%
X171550000Y-90000000D02*
X199450000Y-90000000D01*
X171550000Y-144400000D02*
X171550000Y-90000000D01*
X199450000Y-90000000D02*
X199450000Y-144400000D01*
X199450000Y-144400000D02*
X171550000Y-144400000D01*
D13*
X200200000Y-137010000D02*
G75*
G02*
X200000000Y-137010000I-100000J0D01*
G01*
X200000000Y-137010000D02*
G75*
G02*
X200200000Y-137010000I100000J0D01*
G01*
D11*
%TO.C,Q2*%
X154770000Y-52650000D02*
G75*
G02*
X156608478Y-57088478I0J-2600000D01*
G01*
X152931522Y-57088478D02*
G75*
G02*
X154770000Y-52649999I1838478J1838478D01*
G01*
X152970000Y-57100000D02*
X156570000Y-57100000D01*
%TO.C,R16*%
X107735000Y-58522936D02*
X107735000Y-58977064D01*
X106265000Y-58522936D02*
X106265000Y-58977064D01*
%TO.C,R7*%
X190522936Y-115765000D02*
X190977064Y-115765000D01*
X190522936Y-117235000D02*
X190977064Y-117235000D01*
%TO.C,R14*%
X149814564Y-54235000D02*
X149360436Y-54235000D01*
X149814564Y-52765000D02*
X149360436Y-52765000D01*
%TO.C,R8*%
X190977064Y-119235000D02*
X190522936Y-119235000D01*
X190977064Y-117765000D02*
X190522936Y-117765000D01*
%TO.C,C3*%
X122880000Y-98380000D02*
X125620000Y-98380000D01*
X122880000Y-106620000D02*
X122880000Y-98380000D01*
X122880000Y-106620000D02*
X125620000Y-106620000D01*
X125620000Y-106620000D02*
X125620000Y-98380000D01*
%TO.C,R13*%
X155485000Y-60977064D02*
X155485000Y-60522936D01*
X154015000Y-60977064D02*
X154015000Y-60522936D01*
%TO.C,R9*%
X162477064Y-74985000D02*
X162022936Y-74985000D01*
X162477064Y-73515000D02*
X162022936Y-73515000D01*
%TO.C,R11*%
X187022936Y-120015000D02*
X187477064Y-120015000D01*
X187022936Y-121485000D02*
X187477064Y-121485000D01*
%TO.C,D3*%
X183536130Y-54829837D02*
G75*
G02*
X181454039Y-54830000I-1041130J1079837D01*
G01*
X184167335Y-54828608D02*
G75*
G02*
X180935000Y-54985516I-1672335J1078608D01*
G01*
X181454039Y-52670000D02*
G75*
G02*
X183536130Y-52670163I1040961J-1080000D01*
G01*
X180935000Y-52514484D02*
G75*
G02*
X184167335Y-52671392I1560000J-1235516D01*
G01*
X180935000Y-54830000D02*
X180935000Y-54986000D01*
X180935000Y-52514000D02*
X180935000Y-52670000D01*
%TO.C,J5*%
X108050000Y-104650000D02*
X108050000Y-94300000D01*
X108050000Y-94300000D02*
X107100000Y-94300000D01*
X107350000Y-93800000D02*
X105450000Y-93800000D01*
X107100000Y-94300000D02*
X107350000Y-93800000D01*
X105650000Y-94300000D02*
X100250000Y-94300000D01*
X105450000Y-93800000D02*
X105400000Y-93800000D01*
X105400000Y-93800000D02*
X105650000Y-94300000D01*
X100550000Y-93800000D02*
X95450000Y-93800000D01*
X100250000Y-94300000D02*
X100550000Y-93800000D01*
X95450000Y-104650000D02*
X108050000Y-104650000D01*
X95450000Y-93800000D02*
X95450000Y-104650000D01*
%TO.C,C4*%
X114130000Y-98380000D02*
X116870000Y-98380000D01*
X114130000Y-106620000D02*
X114130000Y-98380000D01*
X114130000Y-106620000D02*
X116870000Y-106620000D01*
X116870000Y-106620000D02*
X116870000Y-98380000D01*
%TO.C,J3*%
X138800000Y-91170000D02*
X138800000Y-93830000D01*
X156640000Y-91170000D02*
X138800000Y-91170000D01*
X156640000Y-91170000D02*
X156640000Y-93830000D01*
X156640000Y-93830000D02*
X138800000Y-93830000D01*
X157910000Y-91170000D02*
X159240000Y-91170000D01*
X159240000Y-91170000D02*
X159240000Y-92500000D01*
%TO.C,R10*%
X158022936Y-73515000D02*
X158477064Y-73515000D01*
X158022936Y-74985000D02*
X158477064Y-74985000D01*
%TO.C,R6*%
X157272936Y-65765000D02*
X157727064Y-65765000D01*
X157272936Y-67235000D02*
X157727064Y-67235000D01*
%TO.C,R12*%
X187314564Y-123485000D02*
X186860436Y-123485000D01*
X187314564Y-122015000D02*
X186860436Y-122015000D01*
%TD*%
M02*
